<svg class="icon__svg" width="32" height="32" xmlns="http://www.w3.org/2000/svg"><path d="M15.16 1.77a5 5 0 0 1 4.11 1.18c1.08.9 1.73 2.16 2.45 3.34l9.06 15.01c.53.9 1.02 1.86 1.16 2.91a4.93 4.93 0 0 1-1.2 4.11 5.31 5.31 0 0 1-2.93 1.56c-.8.17-1.63.13-2.44.13H5.54a5.86 5.86 0 0 1-4.2-1.59 4.62 4.62 0 0 1-1.33-3c-.08-1.3.3-2.61.98-3.73a6698.5 6698.5 0 0 1 10.26-17 5.97 5.97 0 0 1 3.9-2.92zm.2 8.1c-.45.2-.76.6-1 1l-6.12 10.4c-.27.43-.54.9-.53 1.42-.02.43.23.83.58 1.04.41.26.9.29 1.38.3l13.21-.01c.64.01 1.41-.16 1.7-.8.27-.66-.1-1.33-.46-1.87l-6.8-10.67c-.39-.64-1.2-1.15-1.96-.8z" fill="#F34246"/></svg>